<svg width="54" height="54" viewBox="0 0 54 54" fill="none" xmlns="http://www.w3.org/2000/svg">
<circle cx="27" cy="27" r="26.5" stroke="#777777"/>
<path d="M27.9037 24.4964V11.7258C27.9037 11.2145 27.4892 10.8 26.9779 10.8C26.4666 10.8 26.0521 11.2145 26.0521 11.7258V24.4964C25.5168 24.8736 25.1566 25.5645 25.1566 26.3577C25.1566 26.7315 25.2363 27.0833 25.3773 27.3903L21.9731 34.1298C21.7585 34.5546 21.8863 35.0726 22.274 35.3489C22.7545 35.6914 23.4272 35.5254 23.6933 34.9987L26.9655 28.5209C26.9697 28.5209 26.974 28.5209 26.9783 28.5209C27.9842 28.5209 28.8 27.5518 28.8 26.3569C28.8 25.5636 28.4391 24.8736 27.9037 24.4964Z" fill="#777777"/>
<path d="M37.5844 7.85786L36.4653 9.79611C36.2314 10.2013 36.3702 10.7194 36.7754 10.9533C37.1805 11.1872 37.6986 11.0484 37.9326 10.6432L39.0516 8.70498C39.2855 8.29981 39.1467 7.78172 38.7415 7.5478C38.3364 7.31387 37.8183 7.45269 37.5844 7.85786Z" fill="#777777"/>
<path d="M45.8016 15.4735L43.8633 16.5925C43.4581 16.8264 43.3193 17.3445 43.5532 17.7497C43.7872 18.1549 44.3053 18.2937 44.7104 18.0598L46.6487 16.9407C47.0539 16.7068 47.1927 16.1887 46.9587 15.7835C46.7248 15.3784 46.2067 15.2395 45.8016 15.4735Z" fill="#777777"/>
<path d="M46.6241 37.1015L44.6858 35.9824C44.2807 35.7485 43.7626 35.8873 43.5286 36.2925C43.2947 36.6977 43.4335 37.2158 43.8387 37.4497L45.7769 38.5687C46.1821 38.8027 46.7002 38.6638 46.9341 38.2587C47.1681 37.8535 47.0292 37.3354 46.6241 37.1015Z" fill="#777777"/>
<path d="M39.0085 45.3196L37.8895 43.3814C37.6556 42.9762 37.1375 42.8374 36.7323 43.0713C36.3271 43.3052 36.1883 43.8233 36.4222 44.2285L37.5413 46.1667C37.7752 46.5719 38.2933 46.7107 38.6985 46.4768C39.1036 46.2429 39.2425 45.7248 39.0085 45.3196Z" fill="#777777"/>
<path d="M28.8 49.5V47.7C28.8 47.2029 28.3971 46.8 27.9 46.8C27.4029 46.8 27 47.2029 27 47.7V49.5C27 49.9971 27.4029 50.4 27.9 50.4C28.3971 50.4 28.8 49.9971 28.8 49.5Z" fill="#777777"/>
<path d="M17.0329 43.3573L15.9138 45.2956C15.6799 45.7007 15.8187 46.2188 16.2239 46.4528C16.6291 46.6867 17.1472 46.5479 17.3811 46.1427L18.5001 44.2044C18.7341 43.7993 18.5953 43.2812 18.1901 43.0473C17.7849 42.8133 17.2668 42.9522 17.0329 43.3573Z" fill="#777777"/>
<path d="M10.2538 35.9405L8.31551 37.0596C7.91034 37.2935 7.77152 37.8116 8.00545 38.2168C8.23937 38.622 8.75746 38.7608 9.16263 38.5268L11.1009 37.4078C11.5061 37.1739 11.6449 36.6558 11.4109 36.2506C11.177 35.8454 10.6589 35.7066 10.2538 35.9405Z" fill="#777777"/>
<path d="M6.3 27H4.5C4.00294 27 3.6 27.4029 3.6 27.9C3.6 28.3971 4.00294 28.8 4.5 28.8H6.3C6.79706 28.8 7.2 28.3971 7.2 27.9C7.2 27.4029 6.79706 27 6.3 27Z" fill="#777777"/>
<path d="M49.5 27H47.7C47.2029 27 46.8 27.4029 46.8 27.9C46.8 28.3971 47.2029 28.8 47.7 28.8H49.5C49.9971 28.8 50.4 28.3971 50.4 27.9C50.4 27.4029 49.9971 27 49.5 27Z" fill="#777777"/>
<path d="M11.1255 16.5491L9.18724 15.4301C8.78207 15.1962 8.26398 15.335 8.03006 15.7402C7.79613 16.1453 7.93495 16.6634 8.34012 16.8973L10.2784 18.0164C10.6835 18.2503 11.2016 18.1115 11.4356 17.7063C11.6695 17.3011 11.5307 16.7831 11.1255 16.5491Z" fill="#777777"/>
<path d="M18.5415 9.77094L17.4224 7.8327C17.1885 7.42753 16.6704 7.2887 16.2652 7.52263C15.86 7.75656 15.7212 8.27465 15.9552 8.67982L17.0742 10.6181C17.3081 11.0232 17.8262 11.1621 18.2314 10.9281C18.6366 10.6942 18.7754 10.1761 18.5415 9.77094Z" fill="#777777"/>
<path d="M28.8 6.3V4.5C28.8 4.00294 28.3971 3.6 27.9 3.6C27.4029 3.6 27 4.00294 27 4.5V6.3C27 6.79706 27.4029 7.2 27.9 7.2C28.3971 7.2 28.8 6.79706 28.8 6.3Z" fill="#777777"/>
</svg>
