<svg width="24" height="28" viewBox="0 0 24 28" fill="none" xmlns="http://www.w3.org/2000/svg">
<g id="Bal&#195;&#163;o">
<g id="Subtract">
<mask id="path-1-inside-1_4206_1111" fill="white">
<path fill-rule="evenodd" clip-rule="evenodd" d="M5.19681 4.74162C7.06759 2.85824 9.48417 1.82129 11.9996 1.82129H12.0009C12.2765 1.82129 12.4993 2.02506 12.4993 2.27706C12.4993 2.52907 12.2752 2.73284 12.0009 2.73284C9.76894 2.73284 7.61471 3.66368 5.9351 5.35415C4.26472 7.03497 3.30626 9.24873 3.30626 11.4275C3.30626 11.6795 3.08346 11.8833 2.80792 11.8833C2.53238 11.8833 2.30957 11.6783 2.30957 11.4275C2.30957 9.02446 3.36163 6.58763 5.19681 4.74162ZM3.69645 15.8503C3.95486 15.7647 4.24094 15.8865 4.33455 16.1228C4.8263 17.3599 5.47099 18.5741 6.19873 19.6327C6.34507 19.8462 6.27388 20.1271 6.04184 20.2609C5.95879 20.308 5.86782 20.3309 5.77685 20.3309C5.61073 20.3309 5.44989 20.2549 5.35497 20.1174C4.59031 19.0045 3.91399 17.7313 3.3985 16.4339C3.3049 16.1975 3.43805 15.9359 3.69645 15.8503Z"/>
</mask>
<path d="M5.19681 4.74162L5.906 5.44665L5.90629 5.44635L5.19681 4.74162ZM5.9351 5.35415L6.64441 6.05905L6.64448 6.05897L5.9351 5.35415ZM4.33455 16.1228L3.40482 16.491L3.40527 16.4922L4.33455 16.1228ZM3.69645 15.8503L4.01094 16.7996L4.01094 16.7996L3.69645 15.8503ZM6.19873 19.6327L7.02347 19.0672L7.0228 19.0663L6.19873 19.6327ZM6.04184 20.2609L6.53455 21.1312L6.54149 21.1272L6.04184 20.2609ZM5.35497 20.1174L4.53076 20.6837L4.53211 20.6857L5.35497 20.1174ZM3.3985 16.4339L2.46877 16.8021L2.46917 16.8031L3.3985 16.4339ZM11.9996 0.821289C9.20201 0.821289 6.53442 1.97601 4.48733 4.0369L5.90629 5.44635C7.60076 3.74046 9.76633 2.82129 11.9996 2.82129V0.821289ZM12.0009 0.821289H11.9996V2.82129H12.0009V0.821289ZM13.4993 2.27706C13.4993 1.3906 12.7429 0.821289 12.0009 0.821289V2.82129C11.8101 2.82129 11.4993 2.65952 11.4993 2.27706H13.4993ZM12.0009 3.73284C12.7397 3.73284 13.4993 3.16516 13.4993 2.27706H11.4993C11.4993 1.89297 11.8106 1.73284 12.0009 1.73284V3.73284ZM6.64448 6.05897C8.15043 4.54329 10.0546 3.73284 12.0009 3.73284V1.73284C9.48331 1.73284 7.079 2.78407 5.22572 4.64932L6.64448 6.05897ZM4.30626 11.4275C4.30626 9.5374 5.14218 7.57067 6.64441 6.05905L5.2258 4.64924C3.38727 6.49926 2.30626 8.96005 2.30626 11.4275H4.30626ZM2.80792 12.8833C3.54982 12.8833 4.30626 12.314 4.30626 11.4275H2.30626C2.30626 11.0451 2.61709 10.8833 2.80792 10.8833V12.8833ZM1.30957 11.4275C1.30957 12.3111 2.06422 12.8833 2.80792 12.8833V10.8833C3.00053 10.8833 3.30957 11.0455 3.30957 11.4275H1.30957ZM4.48763 4.0366C2.48319 6.05287 1.30957 8.73708 1.30957 11.4275H3.30957C3.30957 9.31184 4.24008 7.1224 5.906 5.44665L4.48763 4.0366ZM5.26428 15.7545C4.95317 14.9691 4.08397 14.6685 3.38196 14.901L4.01094 16.7996C3.90098 16.836 3.78584 16.8287 3.68489 16.7856C3.58372 16.7424 3.4673 16.6488 3.40482 16.491L5.26428 15.7545ZM7.0228 19.0663C6.33896 18.0715 5.72903 16.9237 5.26382 15.7534L3.40527 16.4922C3.92357 17.7961 4.60302 19.0767 5.37466 20.1992L7.0228 19.0663ZM6.54149 21.1272C7.23977 20.7244 7.52423 19.7975 7.02346 19.0672L5.374 20.1983C5.2822 20.0644 5.25227 19.8927 5.29223 19.7333C5.3315 19.5768 5.43022 19.4593 5.5422 19.3947L6.54149 21.1272ZM5.77685 21.3309C6.03711 21.3309 6.29829 21.2649 6.53454 21.1311L5.54915 19.3907C5.61929 19.351 5.69853 19.3309 5.77685 19.3309V21.3309ZM4.53211 20.6857C4.8324 21.1205 5.31644 21.3309 5.77685 21.3309V19.3309C5.90503 19.3309 6.06739 19.3893 6.17783 19.5492L4.53211 20.6857ZM2.46917 16.8031C3.01131 18.1676 3.72242 19.5073 4.53077 20.6837L6.17917 19.5512C5.4582 18.5018 4.81667 17.2949 4.32783 16.0646L2.46917 16.8031ZM3.38197 14.901C2.64311 15.1458 2.13906 15.9697 2.46877 16.8021L4.32823 16.0656C4.47073 16.4254 4.23299 16.726 4.01094 16.7996L3.38197 14.901Z" fill="#777777" mask="url(#path-1-inside-1_4206_1111)"/>
</g>
<path id="Vector" d="M12.9058 27.139L12.9061 27.14C12.9311 27.2169 12.9165 27.2955 12.8585 27.3665C12.7987 27.4397 12.6928 27.5005 12.5523 27.5005H11.4554H11.4462C11.3066 27.5005 11.2005 27.4399 11.1403 27.3663C11.082 27.2949 11.0675 27.2164 11.0924 27.14L11.0926 27.1393L11.289 26.5328L11.4468 26.0456C11.6292 26.0614 11.8132 26.0697 11.9986 26.0697C12.184 26.0697 12.3688 26.0618 12.5524 26.0459L12.7094 26.5313L12.9058 27.139Z" stroke="#777777"/>
</g>
</svg>
