<svg width="34" height="41" viewBox="0 0 34 41" fill="none" xmlns="http://www.w3.org/2000/svg">
<path id="Vector" d="M17.3878 39.9341C17.6143 39.948 17.8559 39.9618 18.0976 39.948C20.7706 39.9203 19.9551 37.6634 18.4147 35.5589C18.913 35.462 19.3963 35.3097 19.8645 35.102C22.326 34.022 25.89 31.8205 28.85 27.4453C31.4474 23.5962 32.4291 20.0378 32.7915 17.7256C32.9123 16.9503 32.9727 16.1887 32.9878 15.4134C32.9878 14.1396 32.8217 12.8658 32.4442 11.6058C31.9307 9.91663 31.0699 8.32438 29.9222 6.92596C28.7895 5.52754 27.37 4.32297 25.7692 3.38146C24.1382 2.41226 22.3109 1.71998 20.4081 1.34614C19.2453 1.11077 18.0673 1 16.8743 1C14.2315 1 11.6038 1.58152 9.26307 2.70302C7.01291 3.78299 5.03459 5.34755 3.56973 7.25826C2.08976 9.18281 1.13836 11.4258 0.836322 13.7657C0.670204 15.0949 0.73061 16.3964 0.942034 17.7256C1.30447 20.0378 2.28608 23.5823 4.88357 27.4453C7.84351 31.8344 11.3924 34.0359 13.8691 35.102C14.4278 35.3512 15.0168 35.5173 15.6209 35.6143L14.0503 37.8988C13.6728 38.4388 13.9446 39.1588 14.6091 39.3803C15.0319 39.5187 17.4029 39.9203 17.4029 39.9203L17.3878 39.9341Z" fill="#0090C7" stroke="#70C2F6" stroke-width="0.93268" stroke-miterlimit="10"/>
</svg>
