<svg width="26" height="29" viewBox="0 0 26 29" fill="none" xmlns="http://www.w3.org/2000/svg">
<g id="Group 36712">
<path id="Vector" d="M21.4642 2.97368V3.47368H21.9642H23.2358C24.3581 3.47368 25.2792 4.39488 25.2792 5.51913V25.8828C25.2792 27.007 24.3581 27.9282 23.2358 27.9282H2.88916C1.76686 27.9282 0.845825 27.007 0.845825 25.8828V5.51913C0.845825 4.39488 1.76686 3.47368 2.88916 3.47368H4.16083H4.66083V2.97368V1.70095C4.66083 1.2767 5.00961 0.928223 5.43249 0.928223C5.85538 0.928223 6.20416 1.2767 6.20416 1.70095V2.97368V3.47368H6.70416H19.4208H19.9208V2.97368V1.70095C19.9208 1.2767 20.2696 0.928223 20.6925 0.928223C21.1154 0.928223 21.4642 1.2767 21.4642 1.70095V2.97368ZM2.88916 8.83731H2.38916V9.33731V24.61C2.38916 25.5858 3.18488 26.3828 4.16083 26.3828H21.9642C22.9401 26.3828 23.7358 25.5858 23.7358 24.61V9.33731V8.83731H23.2358H2.88916Z" stroke="#777777"/>
<path id="Vector_2" d="M10.08 21.1501L10.4403 21.5244L10.8006 21.1501L19.3274 12.2904C19.4666 12.1457 19.6735 12.1457 19.8127 12.2904C19.9623 12.4458 19.9623 12.6944 19.8127 12.8498L10.6831 22.3268L10.6829 22.327C10.5437 22.4716 10.3282 22.4716 10.189 22.327L6.5802 18.5773C6.43062 18.4219 6.43062 18.1733 6.5802 18.0178C6.71941 17.8732 6.92629 17.8732 7.0655 18.0178L10.08 21.1501Z" stroke="#777777"/>
</g>
</svg>
