<svg width="34" height="41" viewBox="0 0 34 41" fill="none" xmlns="http://www.w3.org/2000/svg">
<path id="Vector" d="M17.6469 39.9341C17.8735 39.948 18.1151 39.9618 18.3567 39.948C21.0297 39.9203 20.2142 37.6634 18.6738 35.5589C19.1722 35.462 19.6555 35.3097 20.1236 35.102C22.5852 34.022 26.1492 31.8205 29.1091 27.4453C31.7066 23.5962 32.6882 20.0378 33.0507 17.7256C33.1715 16.9503 33.2319 16.1887 33.247 15.4134C33.247 14.1396 33.0809 12.8658 32.7033 11.6058C32.1899 9.91663 31.3291 8.32438 30.1813 6.92596C29.0487 5.52755 27.6291 4.32297 26.0284 3.38146C24.3974 2.41226 22.5701 1.71998 20.6673 1.34614C19.5044 1.11077 18.3265 1 17.1335 1C14.4907 1 11.863 1.58152 9.52222 2.70302C7.27207 3.78299 5.29375 5.34755 3.82888 7.25826C2.34892 9.18281 1.39751 11.4258 1.09548 13.7657C0.929359 15.0949 0.989766 16.3964 1.20119 17.7256C1.56363 20.0378 2.54524 23.5823 5.14273 27.4453C8.10266 31.8344 11.6516 34.0359 14.1282 35.102C14.687 35.3512 15.276 35.5173 15.88 35.6143L14.3095 37.8988C13.9319 38.4388 14.2037 39.1588 14.8682 39.3803C15.2911 39.5187 17.662 39.9203 17.662 39.9203L17.6469 39.9341Z" stroke="#70C2F6" stroke-width="0.93268" stroke-miterlimit="10"/>
</svg>
