<svg width="33" height="33" viewBox="0 0 33 33" fill="none" xmlns="http://www.w3.org/2000/svg">
<path d="M33 16.5606C33 7.41452 25.6126 0 16.5 0C7.38738 0 0 7.41452 0 16.5606C0 24.3269 5.32752 30.8438 12.5143 32.6337V21.6215H9.11196V16.5606H12.5143V14.3799C12.5143 8.74334 15.0559 6.13074 20.5696 6.13074C21.615 6.13074 23.4188 6.33675 24.1567 6.5421V11.1294C23.7673 11.0883 23.0908 11.0678 22.2506 11.0678C19.5452 11.0678 18.4998 12.0965 18.4998 14.7707V16.5606H23.8894L22.9634 21.6215H18.4998V33C26.6686 32.0097 33 25.0277 33 16.5606Z" fill="#0966FF"/>
</svg>
