<svg width="33" height="31" viewBox="0 0 33 31" fill="none" xmlns="http://www.w3.org/2000/svg">
<g id="Google logo">
<g clip-path="url(#clip0_1250_6944)">
<path id="Vector" d="M32.5987 15.3612C32.5987 14.1321 32.4889 13.2352 32.2515 12.3051H16.8108V17.8526H25.8741C25.6915 19.2312 24.7047 21.3074 22.5119 22.7025L22.4812 22.8882L27.3632 26.326L27.7015 26.3567C30.8078 23.749 32.5987 19.9122 32.5987 15.3612Z" fill="#4285F4"/>
<path id="Vector_2" d="M16.8108 29.9775C21.2511 29.9775 24.9787 28.6487 27.7015 26.3567L22.5119 22.7025C21.1232 23.5828 19.2593 24.1974 16.8108 24.1974C12.4618 24.1974 8.77073 21.5898 7.45494 17.9855L7.26208 18.0004L2.18565 21.5715L2.11926 21.7392C4.82364 26.6223 10.3786 29.9775 16.8108 29.9775Z" fill="#34A853"/>
<path id="Vector_3" d="M7.45484 17.9855C7.10766 17.0554 6.90674 16.0587 6.90674 15.029C6.90674 13.9992 7.10766 13.0026 7.43658 12.0725L7.42738 11.8744L2.28733 8.24603L2.11916 8.31874C1.00455 10.3451 0.36499 12.6207 0.36499 15.029C0.36499 17.4374 1.00455 19.7128 2.11916 21.7392L7.45484 17.9855Z" fill="#FBBC05"/>
<path id="Vector_4" d="M16.8108 5.8606C19.8989 5.8606 21.982 7.07308 23.1698 8.08633L27.8111 3.96717C24.9606 1.55881 21.2511 0.0805664 16.8108 0.0805664C10.3786 0.0805664 4.82364 3.43564 2.11926 8.31877L7.43669 12.0725C8.77073 8.46831 12.4619 5.8606 16.8108 5.8606Z" fill="#EB4335"/>
</g>
</g>
<defs>
<clipPath id="clip0_1250_6944">
<rect x="0.363403" y="0.0805664" width="32.2523" height="30" rx="12" fill="white"/>
</clipPath>
</defs>
</svg>
